<svg width="16" height="16" viewBox="0 0 16 16" fill="none" xmlns="http://www.w3.org/2000/svg">
<path d="M15.334 6.60495L13.9963 6.44487C13.8589 5.93417 13.6582 5.45237 13.4005 5.00492L14.2306 3.9476C14.3586 3.7844 14.3438 3.53295 14.197 3.38693L12.818 2.00711C12.6719 1.86108 12.4205 1.84624 12.2581 1.97275L11.1992 2.80595C10.7533 2.54826 10.2715 2.34757 9.76158 2.2117L9.60228 0.872482C9.57807 0.66789 9.38909 0.5 9.18294 0.5H7.23151C7.02536 0.5 6.83639 0.66789 6.81218 0.872482L6.65132 2.21092C6.1414 2.34679 5.65881 2.54826 5.21293 2.80595L4.15327 1.97431C3.99163 1.84702 3.7394 1.86108 3.59416 2.00711L2.21433 3.38849C2.06831 3.53452 2.05347 3.78596 2.18076 3.94838L3.0124 5.0057C2.75392 5.45237 2.5548 5.93495 2.41814 6.44565L1.08049 6.60573C0.875898 6.62994 0.708008 6.81813 0.708008 7.02585V8.97649C0.708008 9.18343 0.875898 9.37162 1.08049 9.39505L2.41892 9.55669C2.55558 10.065 2.75549 10.5476 3.01318 10.9943L2.18232 12.0516C2.05503 12.2156 2.06987 12.467 2.21589 12.6131L3.59416 13.9929C3.7394 14.1397 3.99163 14.1545 4.15327 14.028L5.21293 13.1941C5.65881 13.4517 6.1414 13.6532 6.65132 13.7891L6.81218 15.1275C6.83639 15.3321 7.02536 15.5 7.23151 15.5H9.18294C9.38909 15.5 9.57807 15.3321 9.60228 15.1275L9.76314 13.7883C10.2731 13.6524 10.7556 13.451 11.2023 13.1933L12.2612 14.0241C12.4236 14.1506 12.6751 14.1374 12.8203 13.9921L14.2001 12.6099C14.3461 12.4631 14.3618 12.2117 14.2337 12.0501L13.4021 10.9927C13.6605 10.5461 13.8597 10.0635 13.9963 9.55279L15.3355 9.39271C15.5409 9.3685 15.708 9.18109 15.708 8.97337V7.02272C15.708 6.81657 15.5401 6.62994 15.334 6.60495ZM8.2084 11.7471C6.13827 11.7471 4.45937 10.0697 4.45937 7.99805C4.45937 5.92714 6.13827 4.24824 8.2084 4.24824C10.2793 4.24824 11.9574 5.92636 11.9574 7.99805C11.9582 10.0697 10.2793 11.7471 8.2084 11.7471Z" fill="white"/>
</svg>
