<svg width="36" height="36" viewBox="0 0 36 36" fill="none" xmlns="http://www.w3.org/2000/svg">
<path fill-rule="evenodd" clip-rule="evenodd" d="M14.0349 0.475699C15.2412 0.214621 16.4916 0.0765686 17.7755 0.0765686C19.2038 0.0765686 20.593 0.248116 21.9222 0.568047V2.97222C23.2017 3.33097 24.4134 3.85125 25.5327 4.51146L27.2222 2.82039C29.4666 4.24819 31.367 6.17027 32.77 8.43326L31.0765 10.129C31.7135 11.2428 32.2156 12.443 32.5577 13.7096H34.9535C35.2549 15.0028 35.4153 16.3517 35.4153 17.7369C35.4153 19.0664 35.2674 20.3605 34.99 21.6061H32.604C32.2694 22.8931 31.7701 24.113 31.1335 25.2446L32.8301 26.9438C31.4421 29.2172 29.5541 31.1502 27.3181 32.5921L25.6322 30.9045C24.484 31.5922 23.2396 32.1316 21.9222 32.5022V34.9055C20.593 35.2267 19.2038 35.3979 17.7755 35.3979C16.4916 35.3979 15.2412 35.2589 14.0349 34.9978V32.6134C13.3824 32.449 12.7486 32.2418 12.1319 31.9964L14.8757 29.25C15.8044 29.4829 16.7755 29.6088 17.7755 29.6088C24.3239 29.6088 29.6335 24.2939 29.6335 17.7369C29.6335 11.1802 24.3239 5.86537 17.7755 5.86537C11.2255 5.86537 5.91683 11.1802 5.91683 17.7369C5.91683 18.8028 6.06034 19.8349 6.32206 20.8173L3.5955 23.5479C3.33847 22.9206 3.11991 22.2726 2.94731 21.6061H0.561569C0.283283 20.3605 0.135387 19.0664 0.135387 17.7369C0.135387 16.3517 0.295479 15.0028 0.596588 13.7096H2.99171C3.36224 12.3451 3.91412 11.0559 4.62421 9.87045L2.93699 8.18283C4.37719 5.94551 6.30767 4.05504 8.57898 2.66387L10.2749 4.36307C11.4431 3.70568 12.7042 3.19479 14.0349 2.86109V0.475699Z" fill="white"/>
</svg>
