<svg width="15" height="14" viewBox="0 0 15 14" fill="none" xmlns="http://www.w3.org/2000/svg">
<path d="M6.85472 1.6483C7.01944 1.27875 7.10183 1.09398 7.21653 1.03708C7.31614 0.987641 7.43311 0.987641 7.53272 1.03708C7.64742 1.09398 7.72981 1.27875 7.89453 1.6483L9.20656 4.59178C9.2553 4.70103 9.27963 4.75565 9.31734 4.79748C9.35064 4.83449 9.39141 4.8641 9.43688 4.88436C9.48832 4.90727 9.5478 4.91355 9.66677 4.9261L12.8716 5.26436C13.274 5.30682 13.4751 5.32805 13.5647 5.41955C13.6425 5.49902 13.6786 5.6103 13.6624 5.72033C13.6438 5.84698 13.4935 5.98238 13.193 6.25325L10.7989 8.4107C10.7101 8.49075 10.6657 8.53081 10.6376 8.57955C10.6127 8.62273 10.5971 8.67062 10.5919 8.72014C10.586 8.77614 10.5984 8.83462 10.6232 8.95167L11.2919 12.1042C11.3758 12.5 11.4178 12.6979 11.3585 12.8113C11.3069 12.9099 11.2122 12.9786 11.1026 12.9972C10.9764 13.0185 10.8011 12.9175 10.4506 12.7154L7.65902 11.1052C7.55542 11.0454 7.50362 11.0156 7.44855 11.0039C7.39981 10.9936 7.34944 10.9936 7.3007 11.0039C7.24563 11.0156 7.19383 11.0454 7.09023 11.1052L4.29862 12.7154C3.94814 12.9175 3.7729 13.0185 3.64667 12.9972C3.53702 12.9786 3.44236 12.9099 3.39082 12.8113C3.33149 12.6979 3.37346 12.5 3.45741 12.1042L4.12606 8.95167C4.15088 8.83462 4.16329 8.77614 4.1574 8.72014C4.15218 8.67062 4.13662 8.62273 4.11172 8.57955C4.08358 8.53081 4.03915 8.49075 3.95031 8.4107L1.55633 6.25325C1.25578 5.98238 1.1055 5.84698 1.08682 5.72033C1.07059 5.6103 1.10675 5.49902 1.18454 5.41955C1.27411 5.32805 1.47529 5.30682 1.87765 5.26436L5.08252 4.9261C5.20147 4.91355 5.26094 4.90727 5.31236 4.88436C5.35787 4.8641 5.39861 4.83449 5.43195 4.79748C5.46962 4.75565 5.49397 4.70103 5.54267 4.59178L6.85472 1.6483Z" fill="#008AEE" stroke="#008AEE" stroke-width="1.5" stroke-linecap="round" stroke-linejoin="round"/>
</svg>
