<svg width="29" height="20" viewBox="0 0 29 20" fill="none" xmlns="http://www.w3.org/2000/svg">
<path d="M9.76373 5.58688H19.665V15.7183H9.76373V5.58688Z" fill="white"/>
<path fill-rule="evenodd" clip-rule="evenodd" d="M11.8408 13.6944V5.67757C14.6868 7.01675 16.891 8.31043 19.4979 9.70519C17.3478 10.8976 14.6868 12.2356 11.8408 13.6944ZM27.7016 1.6904C27.2106 1.0436 26.3739 0.540127 25.4831 0.373441C22.8648 -0.123773 6.53012 -0.125187 3.91321 0.373441C3.19886 0.507355 2.56276 0.831046 2.01633 1.33396C-0.286092 3.47096 0.435377 14.931 0.990349 16.7874C1.22372 17.5909 1.52541 18.1704 1.90535 18.5507C2.39487 19.0536 3.06509 19.3999 3.83494 19.5552C5.99079 20.0011 17.0973 20.2505 25.4376 19.6222C26.206 19.4883 26.8862 19.1308 27.4226 18.6066C29.5514 16.4781 29.4063 4.37447 27.7016 1.6904Z" fill="#B62920"/>
</svg>
