<svg width="20" height="20" viewBox="0 0 20 20" fill="none" xmlns="http://www.w3.org/2000/svg">
<path d="M7.50922 1.75595H17.4105V20H7.50922V1.75595Z" fill="white"/>
<path d="M2.22222 0H17.7778C18.3671 0 18.9324 0.234126 19.3491 0.650874C19.7659 1.06762 20 1.63285 20 2.22222V17.7778C20 18.3671 19.7659 18.9324 19.3491 19.3491C18.9324 19.7659 18.3671 20 17.7778 20H2.22222C1.63285 20 1.06762 19.7659 0.650874 19.3491C0.234126 18.9324 0 18.3671 0 17.7778V2.22222C0 1.63285 0.234126 1.06762 0.650874 0.650874C1.06762 0.234126 1.63285 0 2.22222 0ZM16.6667 2.22222H13.8889C12.8575 2.22222 11.8683 2.63194 11.139 3.36125C10.4097 4.09056 10 5.07971 10 6.11111V8.88889H7.77778V12.2222H10V20H13.3333V12.2222H16.6667V8.88889H13.3333V6.66667C13.3333 6.37198 13.4504 6.08937 13.6588 5.88099C13.8671 5.67262 14.1498 5.55556 14.4444 5.55556H16.6667V2.22222Z" fill="#3C88E7"/>
</svg>
