<svg width="24" height="24" viewBox="0 0 24 24" fill="none" xmlns="http://www.w3.org/2000/svg">
<path fill-rule="evenodd" clip-rule="evenodd" d="M16.1463 0.289459C16.8611 0.289459 17.5759 0.395583 18.265 0.607826L13.7318 5.14539L14.7364 8.89847L18.4861 9.90428L23.0184 5.36703C23.195 5.94224 23.2981 6.53507 23.3275 7.13119L23.3363 7.48915C23.3363 9.22788 22.711 10.9666 21.4591 12.338L21.2317 12.5761C19.3463 14.4627 16.6757 15.0823 14.2742 14.4354L14.0085 14.3583L4.87546 23.4916C3.09119 22.3816 1.55778 20.9049 0.379964 19.1668L0.133057 18.7903L9.28392 9.62786C8.54461 7.24465 9.06917 4.55318 10.8604 2.60884L11.0646 2.39593C12.3897 1.06963 14.1041 0.369923 15.8398 0.296007L16.1463 0.289459Z" fill="white"/>
</svg>
