<svg width="30" height="26" viewBox="0 0 30 26" fill="none" xmlns="http://www.w3.org/2000/svg">
<path d="M5.13124 26C3.42321 26 2.2529 25.6837 1.62029 25.0511C0.987688 24.4185 0.671387 23.2482 0.671387 21.5401V15.9416C0.671387 13.6642 0.829538 11.6083 1.14584 9.77372C1.5254 7.87591 2.03148 6.16788 2.66409 4.64964C3.35995 3.06813 4.15071 1.51825 5.03635 0L10.2553 1.61314C9.74925 3.51095 9.40131 5.3455 9.21153 7.11679C9.08501 8.88808 8.99012 10.7859 8.92686 12.8102C11.3308 12.8102 12.5643 14.1387 12.6276 16.7956L12.5327 21.5401C12.4694 23.2482 12.0899 24.4185 11.394 25.0511C10.7614 25.6837 9.62272 26 7.97796 26H5.13124ZM21.832 26C20.1872 26 19.0485 25.6837 18.4159 25.0511C17.7833 24.4185 17.4354 23.2482 17.3721 21.5401V15.9416C17.4354 13.6642 17.6252 11.6083 17.9415 9.77372C18.321 7.87591 18.8271 6.16788 19.4597 4.64964C20.0923 3.06813 20.8831 1.51825 21.832 0L26.9561 1.61314C26.45 3.51095 26.102 5.3455 25.9123 7.11679C25.7857 8.88808 25.6909 10.7859 25.6276 12.8102C28.0315 12.8102 29.2651 14.1387 29.3283 16.7956L29.2334 21.5401C29.1702 23.2482 28.7906 24.4185 28.0947 25.0511C27.4621 25.6837 26.3235 26 24.6787 26H21.832Z" fill="#008AEE"/>
</svg>
